<svg xmlns="http://www.w3.org/2000/svg" xmlns:xlink="http://www.w3.org/1999/xlink" width="512" height="512" viewBox="0 0 480 480"><linearGradient xmlns="http://www.w3.org/2000/svg" id="a"><stop stop-color="#3adee7" offset="0"/><stop stop-color="#ff00a7" offset="1"/></linearGradient><linearGradient xmlns="http://www.w3.org/2000/svg" xmlns:xlink="http://www.w3.org/1999/xlink" id="b" gradientUnits="userSpaceOnUse" x1="-8" x2="500.048" xlink:href="#a" y1="240" y2="240"/><linearGradient xmlns="http://www.w3.org/2000/svg" xmlns:xlink="http://www.w3.org/1999/xlink" id="c" gradientUnits="userSpaceOnUse" x1="-8" x2="500.048" xlink:href="#a" y1="56" y2="56"/><linearGradient xmlns="http://www.w3.org/2000/svg" xmlns:xlink="http://www.w3.org/1999/xlink" id="d" gradientUnits="userSpaceOnUse" x1="-8" x2="500.048" xlink:href="#a" y1="288" y2="288"/><linearGradient xmlns="http://www.w3.org/2000/svg" xmlns:xlink="http://www.w3.org/1999/xlink" id="e" gradientUnits="userSpaceOnUse" x1="-8" x2="500.048" xlink:href="#a" y1="224" y2="224"/><linearGradient xmlns="http://www.w3.org/2000/svg" xmlns:xlink="http://www.w3.org/1999/xlink" id="f" gradientUnits="userSpaceOnUse" x1="-8" x2="500.048" xlink:href="#a" y1="80" y2="80"/><linearGradient xmlns="http://www.w3.org/2000/svg" xmlns:xlink="http://www.w3.org/1999/xlink" id="g" gradientUnits="userSpaceOnUse" x1="-8" x2="500.048" xlink:href="#a" y1="112" y2="112"/><linearGradient xmlns="http://www.w3.org/2000/svg" xmlns:xlink="http://www.w3.org/1999/xlink" id="h" gradientUnits="userSpaceOnUse" x1="-8" x2="500.048" xlink:href="#a" y1="144" y2="144"/><linearGradient xmlns="http://www.w3.org/2000/svg" xmlns:xlink="http://www.w3.org/1999/xlink" id="i" gradientUnits="userSpaceOnUse" x1="-8" x2="500.048" xlink:href="#a" y1="176" y2="176"/><linearGradient xmlns="http://www.w3.org/2000/svg" xmlns:xlink="http://www.w3.org/1999/xlink" id="j" gradientUnits="userSpaceOnUse" x1="-8" x2="500.048" xlink:href="#a" y1="208" y2="208"/><linearGradient xmlns="http://www.w3.org/2000/svg" xmlns:xlink="http://www.w3.org/1999/xlink" id="k" gradientUnits="userSpaceOnUse" x1="-8" x2="500.048" xlink:href="#a" y1="272" y2="272"/><linearGradient xmlns="http://www.w3.org/2000/svg" xmlns:xlink="http://www.w3.org/1999/xlink" id="l" gradientUnits="userSpaceOnUse" x1="-8" x2="500.048" xlink:href="#a" y1="192" y2="192"/><path xmlns="http://www.w3.org/2000/svg" d="M456 0H24C10.746 0 0 10.746 0 24v336c0 13.254 10.746 24 24 24h173.762l-12 48H56c-13.254 0-24 10.746-24 24s10.746 24 24 24h368c13.254 0 24-10.746 24-24s-10.746-24-24-24H294.238l-12-48H456c13.254 0 24-10.746 24-24V24c0-13.254-10.746-24-24-24zM24 16h432a8 8 0 0 1 8 8v304H16V24a8 8 0 0 1 8-8zm408 440a8 8 0 0 1-8 8H56a8 8 0 0 1 0-16h368a8 8 0 0 1 8 8zm-154.246-24h-75.508l12-48h51.508zM464 360a8 8 0 0 1-8 8H24a8 8 0 0 1-8-8v-16h448zm0 0" fill="url(#b)" data-original="url(#b)"/><path xmlns="http://www.w3.org/2000/svg" d="M40 80a8 8 0 0 0 8-8V48h24a8 8 0 0 0 0-16H40a8 8 0 0 0-8 8v32a8 8 0 0 0 8 8zm0 0" fill="url(#c)" data-original="url(#c)"/><path xmlns="http://www.w3.org/2000/svg" d="M400 304a8 8 0 0 0 8 8h32a8 8 0 0 0 8-8v-32a8 8 0 0 0-16 0v24h-24a8 8 0 0 0-8 8zm0 0" fill="url(#d)" data-original="url(#d)"/><path xmlns="http://www.w3.org/2000/svg" d="M308.945 279.383A7.874 7.874 0 0 0 312 280h96a8 8 0 0 0 8-8v-96a8 8 0 0 0-8-8h-96a8 8 0 0 0-8 8v96a7.994 7.994 0 0 0 4.945 7.383zM331.313 264L400 195.312V264zm57.375-80L320 252.688V184zm0 0" fill="url(#e)" data-original="url(#e)"/><path xmlns="http://www.w3.org/2000/svg" d="M304 72h16v16h-16zm0 0" fill="url(#f)" data-original="url(#f)"/><path xmlns="http://www.w3.org/2000/svg" d="M304 104h16v16h-16zm0 0" fill="url(#g)" data-original="url(#g)"/><path xmlns="http://www.w3.org/2000/svg" d="M304 136h16v16h-16zm0 0" fill="url(#h)" data-original="url(#h)"/><path xmlns="http://www.w3.org/2000/svg" d="M336 72h48v16h-48zm0 0" fill="url(#f)" data-original="url(#f)"/><path xmlns="http://www.w3.org/2000/svg" d="M336 104h48v16h-48zm0 0" fill="url(#g)" data-original="url(#g)"/><path xmlns="http://www.w3.org/2000/svg" d="M224 168h48v16h-48zm0 0" fill="url(#i)" data-original="url(#i)"/><path xmlns="http://www.w3.org/2000/svg" d="M224 200h48v16h-48zm0 0" fill="url(#j)" data-original="url(#j)"/><path xmlns="http://www.w3.org/2000/svg" d="M224 232h48v16h-48zm0 0" fill="url(#b)" data-original="url(#b)"/><path xmlns="http://www.w3.org/2000/svg" d="M224 264h48v16h-48zm0 0" fill="url(#k)" data-original="url(#k)"/><path xmlns="http://www.w3.org/2000/svg" d="M336 136h48v16h-48zm0 0" fill="url(#h)" data-original="url(#h)"/><path xmlns="http://www.w3.org/2000/svg" d="M72 72a8 8 0 0 0-8 8v64c.066.852.207 1.7.414 2.527 0 .114.457.887.617 1.192.29.554.637 1.07 1.04 1.547.226.246.468.476.722.695a7.498 7.498 0 0 0 1.598 1.055c.261.152.527.293.8.418.895.359 1.844.55 2.809.566h192a8 8 0 0 0 8-8V80c-.066-.852-.207-1.7-.414-2.527 0-.106-.684-1.274-1-1.762a15.686 15.686 0 0 0-1.93-2.047 15.47 15.47 0 0 0-2.601-1.25c-.582-.156-1.95-.414-2.055-.414zm8 16h134.71L80 132.902zm41.29 48L256 91.098V136zm0 0" fill="url(#g)" data-original="url(#g)"/><path xmlns="http://www.w3.org/2000/svg" d="M120 168H72a8 8 0 0 0-8 8v32a8 8 0 0 0 8 8h48a8 8 0 0 0 8-8v-32a8 8 0 0 0-8-8zm-8 32H80v-16h32zm88-32h-48a8 8 0 0 0-8 8v32a8 8 0 0 0 8 8h48a8 8 0 0 0 8-8v-32a8 8 0 0 0-8-8zm-8 32h-32v-16h32zm0 0" fill="url(#l)" data-original="url(#l)"/><path d="M120 232H72a8 8 0 0 0-8 8v32a8 8 0 0 0 8 8h48a8 8 0 0 0 8-8v-32a8 8 0 0 0-8-8zm-8 32H80v-16h32zm88-32h-48a8 8 0 0 0-8 8v32a8 8 0 0 0 8 8h48a8 8 0 0 0 8-8v-32a8 8 0 0 0-8-8zm-8 32h-32v-16h32zm0 0" xmlns="http://www.w3.org/2000/svg"/></svg>