<svg xmlns="http://www.w3.org/2000/svg" width="512" height="512" viewBox="0 0 479.985 479.985"><linearGradient xmlns="http://www.w3.org/2000/svg" id="a" gradientUnits="userSpaceOnUse" x1="-60.898" y1="592.914" x2="-12.898" y2="623.772" gradientTransform="matrix(8 0 0 -8 455.174 4941)"><stop stop-color="#3adee7" offset="0"/><stop stop-color="#ff00a7" offset="1"/></linearGradient><path xmlns="http://www.w3.org/2000/svg" d="M431.175 420.424l-24.8-49.6a136.8 136.8 0 0 1-14.4-60.824V200c.102-71.621-49.948-133.537-120-148.448V32c0-17.673-14.327-32-32-32s-32 14.327-32 32v19.616C137.871 66.4 87.768 128.355 87.975 200v110a136.81 136.81 0 0 1-14.352 60.8l-24.8 49.6a8 8 0 0 0 7.152 11.6h128.64c4.391 30.574 32.736 51.8 63.311 47.409 24.574-3.529 43.88-22.835 47.409-47.409h128.64a8 8 0 0 0 7.2-11.576zM223.975 32c.009-8.837 7.179-15.993 16.016-15.984 8.824.009 15.976 7.16 15.984 15.984v16.864c-.488-.048-.984 0-1.472-.08-4.496-.44-9.008-.696-13.528-.728-.336-.008-.664-.056-1-.056s-.584.048-.88.048c-4.584 0-9.144.296-13.68.744-.48 0-.96 0-1.44.072V32zm16 432c-19.002-.021-35.375-13.387-39.2-32h78.4c-3.825 18.613-20.198 31.979-39.2 32zM68.919 416l19.056-38.024a152.806 152.806 0 0 0 16-67.976V200c-.227-66.45 47.809-123.241 113.376-134.04a132.454 132.454 0 0 1 34-1.464c3.803.331 7.579.824 11.328 1.48C328.125 76.957 376.041 133.64 375.975 200v110a152.804 152.804 0 0 0 16.04 68l19.016 38H68.919z" fill="url(#a)"/></svg>