<svg xmlns="http://www.w3.org/2000/svg" xmlns:xlink="http://www.w3.org/1999/xlink" width="512" height="512" viewBox="0 0 64 64"><linearGradient xmlns="http://www.w3.org/2000/svg" id="a" gradientUnits="userSpaceOnUse" x1="32" x2="32" y1="69.208" y2="16.275"><stop stop-color="#ff00a7" offset="0"/><stop stop-color="#3adee7" offset="1"/></linearGradient><linearGradient xmlns="http://www.w3.org/2000/svg" xmlns:xlink="http://www.w3.org/1999/xlink" id="b" x1="12" x2="12" xlink:href="#a" y1="69.208" y2="16.275"/><linearGradient xmlns="http://www.w3.org/2000/svg" xmlns:xlink="http://www.w3.org/1999/xlink" id="c" x1="19" x2="19" xlink:href="#a" y1="69.208" y2="16.275"/><linearGradient xmlns="http://www.w3.org/2000/svg" xmlns:xlink="http://www.w3.org/1999/xlink" id="d" x1="27" x2="27" xlink:href="#a" y1="69.208" y2="16.275"/><linearGradient xmlns="http://www.w3.org/2000/svg" xmlns:xlink="http://www.w3.org/1999/xlink" id="e" x1="34" x2="34" xlink:href="#a" y1="69.208" y2="16.275"/><linearGradient xmlns="http://www.w3.org/2000/svg" xmlns:xlink="http://www.w3.org/1999/xlink" id="f" x1="23" x2="23" xlink:href="#a" y1="69.208" y2="16.275"/><g xmlns="http://www.w3.org/2000/svg" data-name="Free delivery"><path d="M61 53h-1V42a9.01 9.01 0 0 0-9-9h-7V22a1 1 0 0 0-1-1H3a1 1 0 0 0-1 1v32a1 1 0 0 0 1 1h1v1a3 3 0 0 0 3 3h4.812a5.986 5.986 0 0 0 10.376 0h23.624a5.986 5.986 0 0 0 10.376 0H59a3 3 0 0 0 3-3v-2a1 1 0 0 0-1-1zm-3-11v2h-9a1 1 0 0 1-1-1v-8h3a7.008 7.008 0 0 1 7 7zm-12-7v8a3 3 0 0 0 3 3h9v7h-1.812a5.986 5.986 0 0 0-10.376 0H44V35zM22.188 53a5.986 5.986 0 0 0-10.376 0H4v-4h38v4zM4 23h38v24H4zm3 34a1 1 0 0 1-1-1v-1h5.09a5.6 5.6 0 0 0 0 2zm10 3a4 4 0 1 1 4-4 4 4 0 0 1-4 4zm5.91-3a5.6 5.6 0 0 0 0-2h22.18a5.6 5.6 0 0 0 0 2zM51 60a4 4 0 1 1 4-4 4 4 0 0 1-4 4zm9-4a1 1 0 0 1-1 1h-2.09a5.6 5.6 0 0 0 0-2H60z" fill="url(#a)" data-original="url(#New_Gradient_Swatch_3)"/><path d="M10 38a1 1 0 0 0 1-1v-3h2a1 1 0 0 0 0-2h-2v-2h3a1 1 0 0 0 0-2h-4a1 1 0 0 0-1 1v8a1 1 0 0 0 1 1z" fill="url(#b)" data-original="url(#New_Gradient_Swatch_3-2)"/><path d="M17 38a1 1 0 0 0 1-1v-2.333l2.2 2.933a1 1 0 1 0 1.6-1.2l-1.912-2.549A2.992 2.992 0 0 0 19 28h-2a1 1 0 0 0-1 1v8a1 1 0 0 0 1 1zm3-7a1 1 0 0 1-1 1h-1v-2h1a1 1 0 0 1 1 1z" fill="url(#c)" data-original="url(#New_Gradient_Swatch_3-3)"/><path d="M25 38h4a1 1 0 0 0 0-2h-3v-2h2a1 1 0 0 0 0-2h-2v-2h3a1 1 0 0 0 0-2h-4a1 1 0 0 0-1 1v8a1 1 0 0 0 1 1z" fill="url(#d)" data-original="url(#New_Gradient_Swatch_3-4)"/><path d="M32 38h4a1 1 0 0 0 0-2h-3v-2h2a1 1 0 0 0 0-2h-2v-2h3a1 1 0 0 0 0-2h-4a1 1 0 0 0-1 1v8a1 1 0 0 0 1 1z" fill="url(#e)" data-original="url(#New_Gradient_Swatch_3-5)"/><path d="M39 40H7a1 1 0 0 0 0 2h32a1 1 0 0 0 0-2z" fill="url(#f)" data-original="url(#New_Gradient_Swatch_3-6)"/></g></svg>