<svg height="640" viewBox="0 0 480 480" width="640" xmlns="http://www.w3.org/2000/svg"><linearGradient id="a" gradientUnits="userSpaceOnUse" x1="59.928" x2="467.928" y1="437.72" y2="-10.28"><stop offset="0" stop-color="#3adee7"/><stop offset="1" stop-color="#ff00a7"/></linearGradient><g fill="url(#a)"><path d="M240 0C107.453 0 0 107.453 0 240s107.453 240 240 240 240-107.453 240-240C479.852 107.516 372.484.148 240 0zm0 464C116.29 464 16 363.71 16 240S116.29 16 240 16s224 100.29 224 224c-.14 123.652-100.348 223.86-224 224zm0 0"/><path d="M240 24C120.707 24 24 120.707 24 240s96.707 216 216 216 216-96.707 216-216c-.133-119.238-96.762-215.867-216-216zm0 416c-110.457 0-200-89.543-200-200S129.543 40 240 40s200 89.543 200 200c-.125 110.406-89.594 199.875-200 200zm0 0"/><path d="M392 200v-16h-96V88h-16v96h-80V88h-16v96H88v16h96v80H88v16h96v96h16v-96h80v96h16v-96h96v-16h-96v-80zm-112 80h-80v-80h80zm0 0"/></g></svg>