<svg height="512" viewBox="0 0 62 62" width="512" xmlns="http://www.w3.org/2000/svg"><linearGradient id="a" gradientUnits="userSpaceOnUse" x1="31" x2="31" y1="62"><stop offset="0" stop-color="#9f2fff"/><stop offset="1" stop-color="#0bb1d3"/></linearGradient><path d="M20 57a1 1 0 1 1-2 0 1 1 0 0 1 2 0zm-1-5a1 1 0 1 0 0 2 1 1 0 0 0 0-2zm0-4a1 1 0 1 0 0 2 1 1 0 0 0 0-2zm-6.878-37.464A3.8 3.8 0 0 1 11 7.829a3.832 3.832 0 0 1 6-3.156 3.833 3.833 0 0 1 6 3.156 3.8 3.8 0 0 1-1.122 2.707L19.414 13c-.645.645-1.502 1-2.414 1s-1.77-.355-2.414-1zM13 7.829c0 .488.19.947.536 1.293L16 11.586c.526.526 1.474.526 2 0l2.464-2.464a1.83 1.83 0 0 0-2.586-2.587L17 7.411l-.878-.875A1.816 1.816 0 0 0 14.83 6C13.821 6 13 6.82 13 7.829zM5 15V3c0-1.654 1.346-3 3-3h18c1.654 0 3 1.346 3 3v12c0 1.654-1.346 3-3 3h-5v1.586A2.417 2.417 0 0 1 18.586 22a2.398 2.398 0 0 1-1.707-.707L13.586 18H8c-1.654 0-3-1.346-3-3zm2 0c0 .551.449 1 1 1h6.414l3.879 3.879c.238.239.707.044.707-.293V16h7c.551 0 1-.449 1-1V3c0-.551-.449-1-1-1H8c-.551 0-1 .449-1 1zm25 14c0-1.654 1.346-3 3-3s3 1.346 3 3a2.996 2.996 0 0 1-2 2.816V36c0 2.206 1.794 4 4 4s4-1.794 4-4v-4.184A2.996 2.996 0 0 1 42 29c0-1.654 1.346-3 3-3s3 1.346 3 3a2.996 2.996 0 0 1-2 2.816V36c0 3.309-2.691 6-6 6s-6-2.691-6-6v-4.184A2.996 2.996 0 0 1 32 29zm12 0c0 .551.449 1 1 1s1-.449 1-1-.449-1-1-1-1 .449-1 1zm-10 0c0 .551.449 1 1 1s1-.449 1-1-.449-1-1-1-1 .449-1 1zm19.847 11l.872 5.231 1.912-2.185A3.063 3.063 0 0 1 62 45.063c0 1.465-.43 2.884-1.242 4.103l-.395.592A22.956 22.956 0 0 1 41.226 60H28.155c-.895 0-1.77-.168-2.6-.501l-1.887-.755C22.957 60.64 21.141 62 19 62c-1.476 0-3.44-.697-4.517-2H0V46h14.483c1.077-1.303 3.041-2 4.517-2 1.892 0 3.522 1.069 4.371 2.623l1.361-1.089c.177-.141.372-.253.561-.375L29.153 22h4.667l2.333-14H41V6c0-3.309 2.691-6 6-6s6 2.691 6 6v2h4.847l4.064 24.383A6.55 6.55 0 0 1 55.458 40zM43 8h8V6c0-2.206-1.794-4-4-4s-4 1.794-4 4zm-7.153 14h15l2.667 16h1.945a4.546 4.546 0 0 0 4.479-5.289L56.153 10H53v2.184c1.161.414 2 1.514 2 2.816 0 1.654-1.346 3-3 3s-3-1.346-3-3c0-1.302.839-2.402 2-2.816V10h-8v2.184c1.161.414 2 1.514 2 2.816 0 1.654-1.346 3-3 3s-3-1.346-3-3c0-1.302.839-2.402 2-2.816V10h-3.153zM42 14c-.551 0-1 .449-1 1s.449 1 1 1 1-.449 1-1-.449-1-1-1zm10 0c-.551 0-1 .449-1 1s.449 1 1 1 1-.449 1-1-.449-1-1-1zM27.477 44.217A6.965 6.965 0 0 1 29.104 44H43c1.654 0 3 1.346 3 3a4.96 4.96 0 0 1-1.01 2.982 12.975 12.975 0 0 0 7.971-3.011c-.009-.086-.008-.174-.022-.259L49.153 24H30.847zM2 58h12V48H2zm19.288-7l.293-.503c.278-.477.419-.981.419-1.497 0-1.654-1.346-3-3-3-1.131 0-2.432.588-3 1.319V58.68c.568.732 1.869 1.32 3 1.32 1.654 0 3-1.346 3-3 0-.516-.141-1.02-.419-1.497L21.288 55l.293-.503c.278-.477.419-.981.419-1.497s-.141-1.02-.419-1.497zm34.648-4.122A15.001 15.001 0 0 1 44.647 52H36v-2h5c1.654 0 3-1.346 3-3 0-.551-.449-1-1-1H29.104c-1.131 0-2.24.389-3.124 1.096l-2.011 1.609c.007.099.031.194.031.295 0 .69-.145 1.361-.432 2a4.845 4.845 0 0 1 0 4c.246.548.366 1.123.401 1.711l2.33.932a4.977 4.977 0 0 0 1.856.357h13.071a20.96 20.96 0 0 0 17.473-9.351l.395-.592c.593-.89.906-1.925.906-2.994a1.064 1.064 0 0 0-1.864-.7z" fill="url(#a)"/></svg>