<svg xmlns="http://www.w3.org/2000/svg" width="512" height="512" viewBox="0 0 512 512"><linearGradient xmlns="http://www.w3.org/2000/svg" id="a" gradientUnits="userSpaceOnUse" x1="-3.123" x2="465.162" y1="458.133" y2="-10.152"><stop stop-color="#3adee7" offset="0"/><stop stop-color="#ff00a7" offset="1"/></linearGradient><path d="M16.077 466.213A32 32 0 0 0 47.954 496c.75 0 1.505-.025 2.261-.078a32 32 0 1 0-34.138-29.71zM35.931 453.5a15.9 15.9 0 0 1 10.963-5.458c.378-.027.755-.039 1.131-.039a16 16 0 1 1-12.094 5.5zm57.7-23.815a8 8 0 1 1 0-11.314 8 8 0 0 1 .004 11.309zm22.627-33.941a8 8 0 1 1-11.314 0 8 8 0 0 1 11.318-.005zm22.627-22.627a8 8 0 1 1-11.313 0 8 8 0 0 1 11.317-.005zm22.628-22.628a8 8 0 1 1-11.314 0 8 8 0 0 1 11.318-.005zm332.635-331.6a8 8 0 0 0-8.727-2.46l-400 136a8 8 0 0 0-3.055 13.258l60.154 59.581 41.824 137.07a7.989 7.989 0 0 0 14.054 2.448c.036-.045.073-.085.108-.133l35.115-49.153 56.749 56.21a8 8 0 0 0 5.63 2.316 7.851 7.851 0 0 0 1.111-.078 8 8 0 0 0 5.865-4.006l192-342.021a8 8 0 0 0-.824-9.035zm-79.277 38.424L150.86 211l-48.046-47.589zm2.105 17.287L195.355 265.442a8 8 0 0 0-2.742 5.291l-4.7 48.47-28.828-94.476zM202.842 331.057l4.072-42.015 15.191 15.047zm91.324 21.888l-81.808-81.03L458.769 59.729z" fill="url(#a)" data-original="url(#linear-gradient)" xmlns="http://www.w3.org/2000/svg"/></svg>