<svg xmlns="http://www.w3.org/2000/svg" xmlns:xlink="http://www.w3.org/1999/xlink" width="512" height="512" viewBox="0 0 512 512"><linearGradient xmlns="http://www.w3.org/2000/svg" id="a" gradientUnits="userSpaceOnUse" x1="129.859" x2="640.082" y1="634.141" y2="123.918" data-name="New Gradient Swatch 1"><stop stop-color="#3adee7" offset="0"/><stop stop-color="#ff00a7" offset="1"/></linearGradient><linearGradient xmlns="http://www.w3.org/2000/svg" xmlns:xlink="http://www.w3.org/1999/xlink" id="b" x1="161.859" x2="672.082" xlink:href="#a" y1="666.141" y2="155.918"/><linearGradient xmlns="http://www.w3.org/2000/svg" xmlns:xlink="http://www.w3.org/1999/xlink" id="c" x1="2.925" x2="513.148" xlink:href="#a" y1="507.207" y2="-3.015"/><linearGradient xmlns="http://www.w3.org/2000/svg" xmlns:xlink="http://www.w3.org/1999/xlink" id="d" x1="31.859" x2="542.082" xlink:href="#a" y1="536.141" y2="25.918"/><linearGradient xmlns="http://www.w3.org/2000/svg" xmlns:xlink="http://www.w3.org/1999/xlink" id="e" x1="-84.141" x2="426.082" xlink:href="#a" y1="420.141" y2="-90.082"/><linearGradient xmlns="http://www.w3.org/2000/svg" xmlns:xlink="http://www.w3.org/1999/xlink" id="f" x1="-64.141" x2="446.082" xlink:href="#a" y1="440.141" y2="-70.082"/><linearGradient xmlns="http://www.w3.org/2000/svg" xmlns:xlink="http://www.w3.org/1999/xlink" id="g" x1="-44.141" x2="466.082" xlink:href="#a" y1="460.141" y2="-50.082"/><linearGradient xmlns="http://www.w3.org/2000/svg" xmlns:xlink="http://www.w3.org/1999/xlink" id="h" x1="47.859" x2="558.082" xlink:href="#a" y1="552.141" y2="41.918"/><linearGradient xmlns="http://www.w3.org/2000/svg" xmlns:xlink="http://www.w3.org/1999/xlink" id="i" x1="35.859" x2="546.082" xlink:href="#a" y1="540.141" y2="29.918"/><linearGradient xmlns="http://www.w3.org/2000/svg" xmlns:xlink="http://www.w3.org/1999/xlink" id="j" x1="59.859" x2="570.082" xlink:href="#a" y1="564.141" y2="53.918"/><g xmlns="http://www.w3.org/2000/svg"><path d="M360 448a8 8 0 0 0 8-8v-72a8 8 0 0 0-16 0v72a8 8 0 0 0 8 8z" fill="url(#a)" data-original="url(#a)"/><path d="M360 480a8 8 0 0 0 8-8v-8a8 8 0 0 0-16 0v8a8 8 0 0 0 8 8z" fill="url(#b)" data-original="url(#b)"/><path d="M464 96h-72V36a28.031 28.031 0 0 0-28-28H148a28.031 28.031 0 0 0-28 28v60H48a8 8 0 0 0-8 8v144a8 8 0 0 0 8 8h72v220a28.031 28.031 0 0 0 28 28h216a28.031 28.031 0 0 0 28-28V256h72a8 8 0 0 0 8-8V104a8 8 0 0 0-8-8zM293.75 24l-4 16h-67.5l-4-16zM136 36a12.01 12.01 0 0 1 12-12h53.75l6.49 25.94A8 8 0 0 0 216 56h80a8 8 0 0 0 7.76-6.06L310.25 24H364a12.01 12.01 0 0 1 12 12v60H136zm240 440a12.01 12.01 0 0 1-12 12H148a12.01 12.01 0 0 1-12-12V256h91.06l21.78 43.58a8.009 8.009 0 0 0 14.32 0L284.94 256H376zm80-236H280a8.011 8.011 0 0 0-7.16 4.42L256 278.11l-16.84-33.69A8.011 8.011 0 0 0 232 240H56V112h400z" fill="url(#c)" data-original="url(#c)"/><path d="M344 136v80a8 8 0 0 0 8 8h80a8 8 0 0 0 8-8v-80a8 8 0 0 0-8-8h-80a8 8 0 0 0-8 8zm16 8h64v64h-64z" fill="url(#d)" data-original="url(#d)"/><path d="M320 128H80a8 8 0 0 0 0 16h240a8 8 0 0 0 0-16z" fill="url(#e)" data-original="url(#e)"/><path d="M320 168H80a8 8 0 0 0 0 16h240a8 8 0 0 0 0-16z" fill="url(#f)" data-original="url(#f)"/><path d="M320 208H80a8 8 0 0 0 0 16h240a8 8 0 0 0 0-16z" fill="url(#g)" data-original="url(#g)"/><path d="M200 320v48a8 8 0 0 0 8 8h96a8 8 0 0 0 8-8v-48a8 8 0 0 0-8-8h-96a8 8 0 0 0-8 8zm16 8h80v32h-80z" fill="url(#h)" data-original="url(#h)"/><circle cx="256" cy="344" fill="url(#h)" r="8" data-original="url(#h)"/><circle cx="232" cy="344" fill="url(#i)" r="8" data-original="url(#j)"/><circle cx="280" cy="344" fill="url(#j)" r="8" data-original="url(#k)"/></g></svg>