<svg xmlns="http://www.w3.org/2000/svg" xmlns:xlink="http://www.w3.org/1999/xlink" width="512" height="512" viewBox="0 0 480 480"><linearGradient xmlns="http://www.w3.org/2000/svg" id="a"><stop stop-color="#3adee7" offset="0"/><stop stop-color="#ff00a7" offset="1"/></linearGradient><linearGradient xmlns="http://www.w3.org/2000/svg" xmlns:xlink="http://www.w3.org/1999/xlink" id="b" gradientUnits="userSpaceOnUse" x1="26.568" x2="434.568" xlink:href="#a" y1="465.984" y2="33.984"/><linearGradient xmlns="http://www.w3.org/2000/svg" xmlns:xlink="http://www.w3.org/1999/xlink" id="c" gradientUnits="userSpaceOnUse" x1="27.984" x2="435.984" xlink:href="#a" y1="467.312" y2="35.312"/><linearGradient xmlns="http://www.w3.org/2000/svg" xmlns:xlink="http://www.w3.org/1999/xlink" id="d" gradientUnits="userSpaceOnUse" x1="29.152" x2="437.152" xlink:href="#a" y1="468.424" y2="36.424"/><path xmlns="http://www.w3.org/2000/svg" d="M240 0C107.453 0 0 107.453 0 240s107.453 240 240 240 240-107.453 240-240C479.852 107.516 372.484.148 240 0zm0 464C116.29 464 16 363.71 16 240S116.29 16 240 16s224 100.29 224 224c-.14 123.652-100.348 223.86-224 224zm0 0" fill="url(#b)" data-original="url(#b)"/><path xmlns="http://www.w3.org/2000/svg" d="M288 88c-40.613-.055-77.535 23.57-94.504 60.473-16.969 36.898-10.871 80.304 15.61 111.101L90.343 378.344l11.312 11.312 118.77-118.761c34.98 29.972 85.52 33.343 124.172 8.285 38.656-25.055 56.21-72.567 43.132-116.739C374.652 118.273 334.066 87.977 288 88zm0 192c-48.602 0-88-39.398-88-88s39.398-88 88-88 88 39.398 88 88c-.059 48.578-39.422 87.941-88 88zm0 0" fill="url(#c)" data-original="url(#c)"/><path xmlns="http://www.w3.org/2000/svg" d="M288 112v16c35.328.04 63.96 28.672 64 64h16c-.047-44.164-35.836-79.953-80-80zm0 0" fill="url(#d)" data-original="url(#d)"/></svg>