<svg height="512pt" viewBox="0 0 512 512.0002" width="512pt" xmlns="http://www.w3.org/2000/svg"><linearGradient id="a" gradientUnits="userSpaceOnUse" x2="512" y1="256" y2="256"><stop offset="0" stop-color="#80d8ff"/><stop offset="1" stop-color="#ea80fc"/></linearGradient><path d="M256 0C114.516 0 0 114.496 0 256c0 44.902 11.71 88.758 33.95 127.438L.964 485.868a19.999 19.999 0 0 0 25.168 25.167l102.43-32.984C167.243 500.289 211.097 512 256 512c141.484 0 256-114.496 256-256C512 114.516 397.504 0 256 0zm0 472c-40.559 0-80.094-11.316-114.332-32.727a20.013 20.013 0 0 0-16.734-2.078l-73.942 23.813 23.813-73.942a20.015 20.015 0 0 0-2.082-16.734C51.316 336.094 40 296.559 40 256c0-119.102 96.898-216 216-216s216 96.898 216 216-96.898 216-216 216zm25-216c0 13.805-11.191 25-25 25s-25-11.195-25-25c0-13.809 11.191-25 25-25s25 11.191 25 25zm100 0c0 13.805-11.191 25-25 25s-25-11.195-25-25c0-13.809 11.191-25 25-25s25 11.191 25 25zm-200 0c0 13.805-11.191 25-25 25-13.805 0-25-11.195-25-25 0-13.809 11.195-25 25-25 13.809 0 25 11.191 25 25zm0 0" fill="url(#a)"/></svg>