<svg xmlns="http://www.w3.org/2000/svg" width="512" height="512" viewBox="0 0 512 512"><linearGradient xmlns="http://www.w3.org/2000/svg" id="a" gradientUnits="userSpaceOnUse" x1="36" y1="258" x2="476" y2="258" gradientTransform="matrix(1 0 0 -1 0 514)"><stop stop-color="#3adee7" offset="0"/><stop stop-color="#ff00a7" offset="1"/></linearGradient><path xmlns="http://www.w3.org/2000/svg" d="M256 72C134.413 72 36 170.396 36 292c0 121.587 98.395 220 220 220 121.59 0 220-98.398 220-220 0-121.587-98.396-220-220-220zm0 400c-99.252 0-180-80.748-180-180s80.748-180 180-180 180 80.748 180 180-80.748 180-180 180zM176 20c0-11.046 8.954-20 20-20h120c11.046 0 20 8.954 20 20s-8.954 20-20 20H196c-11.046 0-20-8.954-20-20zm164.854 187.147c7.811 7.811 7.81 20.474-.001 28.284l-70.71 70.71c-7.81 7.809-20.472 7.812-28.285 0-7.811-7.811-7.81-20.474.001-28.284l70.71-70.71c7.812-7.809 20.474-7.81 28.285 0z" fill="url(#a)"/></svg>