<svg xmlns="http://www.w3.org/2000/svg" xmlns:xlink="http://www.w3.org/1999/xlink" width="512" height="512" viewBox="0 0 480 479"><linearGradient xmlns="http://www.w3.org/2000/svg" id="a"><stop stop-color="#3adee7" offset="0"/><stop stop-color="#ff00a7" offset="1"/></linearGradient><linearGradient xmlns="http://www.w3.org/2000/svg" xmlns:xlink="http://www.w3.org/1999/xlink" id="b" gradientUnits="userSpaceOnUse" x1="-8" x2="476.248" xlink:href="#a" y1="208.5" y2="208.5"/><linearGradient xmlns="http://www.w3.org/2000/svg" xmlns:xlink="http://www.w3.org/1999/xlink" id="c" gradientUnits="userSpaceOnUse" x1="-8" x2="476.248" xlink:href="#a" y1="40.5" y2="40.5"/><linearGradient xmlns="http://www.w3.org/2000/svg" xmlns:xlink="http://www.w3.org/1999/xlink" id="d" gradientUnits="userSpaceOnUse" x1="-8" x2="476.248" xlink:href="#a" y1="224.5" y2="224.5"/><linearGradient xmlns="http://www.w3.org/2000/svg" xmlns:xlink="http://www.w3.org/1999/xlink" id="e" gradientUnits="userSpaceOnUse" x1="-8" x2="476.248" xlink:href="#a" y1="328.5" y2="328.5"/><linearGradient xmlns="http://www.w3.org/2000/svg" xmlns:xlink="http://www.w3.org/1999/xlink" id="f" gradientUnits="userSpaceOnUse" x1="-8" x2="476.248" xlink:href="#a" y1="344.5" y2="344.5"/><linearGradient xmlns="http://www.w3.org/2000/svg" xmlns:xlink="http://www.w3.org/1999/xlink" id="g" gradientUnits="userSpaceOnUse" x1="-8" x2="476.248" xlink:href="#a" y1="272.5" y2="272.5"/><linearGradient xmlns="http://www.w3.org/2000/svg" xmlns:xlink="http://www.w3.org/1999/xlink" id="h" gradientUnits="userSpaceOnUse" x1="-8" x2="476.248" xlink:href="#a" y1="232.5" y2="232.5"/><path d="M336 128.5h16v16h-16zm-32 0h16v16h-16zm-32 0h16v16h-16zm0 0" xmlns="http://www.w3.org/2000/svg"/><path xmlns="http://www.w3.org/2000/svg" d="M96 96.5H0v320h384v-96h96V.5H96zm-80 16h352v48H16zm352 288H16v-224h352zm96-96h-80v-208H112v-16h352zm-352-288h352v48H112zm0 0" fill="url(#b)" data-original="url(#c)"/><path xmlns="http://www.w3.org/2000/svg" d="M432 32.5h16v16h-16zm-32 0h16v16h-16zm-32 0h16v16h-16zm0 0" fill="url(#c)" data-original="url(#d)"/><path xmlns="http://www.w3.org/2000/svg" d="M336 192.5H48v64h288zm-16 48H64v-32h256zm0 0" fill="url(#d)" data-original="url(#e)"/><path xmlns="http://www.w3.org/2000/svg" d="M128 272.5H48v112h80zm-16 96H64v-80h48zm0 0" fill="url(#e)" data-original="url(#f)"/><path xmlns="http://www.w3.org/2000/svg" d="M144 384.5h80v-80h-80zm16-64h48v48h-48zm0 0" fill="url(#f)" data-original="url(#g)"/><path xmlns="http://www.w3.org/2000/svg" d="M240 384.5h96v-112h-96zm16-96h64v80h-64zm0 0" fill="url(#e)" data-original="url(#f)"/><path xmlns="http://www.w3.org/2000/svg" d="M448 256.5h-16v16h-32v16h48zm0 0" fill="url(#g)" data-original="url(#h)"/><path xmlns="http://www.w3.org/2000/svg" d="M432 224.5h16v16h-16zm0 0" fill="url(#h)" data-original="url(#i)"/></svg>