<svg xmlns="http://www.w3.org/2000/svg" width="512" height="512" viewBox="0 0 512 512.001"><linearGradient xmlns="http://www.w3.org/2000/svg" id="a" gradientUnits="userSpaceOnUse" x1=".001" x2="511.997" y1="256" y2="256"><stop stop-color="#00f2fe" offset="0"/><stop stop-color="#3adee7" offset="0"/><stop stop-color="#3adee7" offset=".021"/><stop stop-color="#ff00a7" offset="1"/><stop stop-color="#ff00a7" offset="1"/><stop stop-color="#ff00a7" offset="1"/></linearGradient><path xmlns="http://www.w3.org/2000/svg" d="M388.496 0C320.398 0 265 55.402 265 123.5S320.398 247 388.496 247s123.5-55.402 123.5-123.5S456.598 0 388.496 0zm0 207C342.457 207 305 169.54 305 123.5c0-46.043 37.457-83.5 83.496-83.5 46.043 0 83.5 37.457 83.5 83.5 0 46.04-37.457 83.5-83.5 83.5zm61.5-83c0 11.047-8.953 20-20 20h-41c-11.043 0-20-8.953-20-20V82c0-11.047 8.957-20 20-20 11.047 0 20 8.953 20 20v22h21c11.047 0 20 8.953 20 20zM146 120c33.082 0 60-26.918 60-60 0-33.086-26.918-60-60-60-33.086 0-60 26.914-60 60 0 33.082 26.914 60 60 60zm0-80c11.027 0 20 8.973 20 20s-8.973 20-20 20-20-8.973-20-20 8.973-20 20-20zm193 443.285c4.813 9.942.652 21.902-9.293 26.715a19.944 19.944 0 0 1-8.695 2c-7.43 0-14.563-4.156-18.016-11.293l-59.863-123.71H140c-33.086 0-60-26.915-60-60V199c0-33.086 26.914-60 60-60h3c33.082 0 60 26.914 60 60v77.996c0 11.047-8.953 20-20 20s-20-8.953-20-20V199c0-11.031-8.973-20-20-20h-3c-11.027 0-20 8.969-20 20v117.996c0 11.031 8.973 20 20 20h115.676c7.668 0 14.66 4.387 18 11.29zm-87.18-.363c5.012 9.844 1.094 21.887-8.75 26.898a19.901 19.901 0 0 1-9.058 2.18c-7.282 0-14.305-3.992-17.836-10.93l-22.438-44.074H140c-25.219 0-48.902-6.707-69.36-18.422L38.825 501.07C35.293 508.008 28.266 512 20.984 512c-3.054 0-6.148-.7-9.058-2.18-9.844-5.011-13.762-17.054-8.75-26.898l35.394-69.524C14.684 388.278 0 354.32 0 316.996V159c0-11.047 8.953-20 20-20s20 8.953 20 20v157.996c0 55.14 44.86 100 100 100h66c7.523 0 14.41 4.223 17.82 10.926zm0 0" fill="url(#a)" data-original="url(#a)"/></svg>