<svg xmlns="http://www.w3.org/2000/svg" width="512" height="512" viewBox="0 0 128 128"><defs xmlns="http://www.w3.org/2000/svg"><linearGradient id="a" x1="102.499" y1="118.31" x2="25.501" y2="41.312" gradientUnits="userSpaceOnUse"><stop stop-color="#ff00a7" offset="0"/><stop stop-color="#3adee7" offset="1"/></linearGradient></defs><path xmlns="http://www.w3.org/2000/svg" d="M109.167 107.417H97.778A14.209 14.209 0 0 0 85 99.335h-2.959l-4.111-16.3A34.45 34.45 0 0 0 60.22 17.29a1.75 1.75 0 0 0 .381 3.479 30.807 30.807 0 0 1 24.015 7.677l-1.711 1.711a28.483 28.483 0 0 0-37.81 0l-1.71-1.71a30.892 30.892 0 0 1 4.736-3.488 1.75 1.75 0 1 0-1.8-3 34.518 34.518 0 0 0-6.686 5.221 34.053 34.053 0 0 0-9.494 17.981l-1.541-.779a1.751 1.751 0 0 0-2.533 1.565v11.179a1.75 1.75 0 0 0 2.533 1.565l1.549-.774A34.421 34.421 0 0 0 64 85.974a34.608 34.608 0 0 0 10.636-1.682l3.794 15.043H49.57l2.81-11.142a1.751 1.751 0 0 0-3.4-.855l-3.026 12H43a14.209 14.209 0 0 0-12.774 8.082H18.833a1.75 1.75 0 0 0 0 3.5H66.75a1.75 1.75 0 0 0 0-3.5H34.257A10.692 10.692 0 0 1 43 102.835h42a10.692 10.692 0 0 1 8.739 4.582H81.125a1.75 1.75 0 0 0 0 3.5h28.042a1.75 1.75 0 0 0 0-3.5zM87.088 72.149l-1.7-1.7a28.51 28.51 0 0 0-.01-37.82l1.708-1.708a31 31 0 0 1 .002 41.228zM64 26.478a24.945 24.945 0 0 1 16.426 6.158l-9.082 9.083a1.749 1.749 0 1 0 2.474 2.474l9.082-9.082a25.009 25.009 0 0 1 .008 32.86L70.27 55.331a7.323 7.323 0 0 0-10.065-10.064L47.578 32.639A25.059 25.059 0 0 1 64 26.478zm-3.839 25.058A3.839 3.839 0 1 1 64 55.376a3.843 3.843 0 0 1-3.839-3.84zm-19.235-20.6l1.7 1.7a28.344 28.344 0 0 0-6.16 11.288 1.75 1.75 0 1 0 3.375.929 24.859 24.859 0 0 1 5.262-9.74L57.73 47.741a7.271 7.271 0 0 0 0 7.59L45.059 68a24.94 24.94 0 0 1-6.041-14.524l.755-.377a1.75 1.75 0 0 0 0-3.131L33.435 46.8a30.516 30.516 0 0 1 7.491-15.862zM29.562 48.778l5.516 2.758-5.516 2.758zm6.108 6.375a28.384 28.384 0 0 0 6.907 15.332l-1.651 1.651a30.523 30.523 0 0 1-7.491-15.865zm7.715 19.474l1.663-1.663A28.707 28.707 0 0 0 76 77.46a1.75 1.75 0 1 0-1.473-3.176 25.184 25.184 0 0 1-26.991-3.806l12.669-12.672a7.265 7.265 0 0 0 7.59 0l16.82 16.821a31 31 0 0 1-41.23 0zm32.865 34.54a1.749 1.749 0 0 1-1.75 1.75h-.688a1.75 1.75 0 1 1 0-3.5h.688a1.749 1.749 0 0 1 1.75 1.75zM51.617 21.216a1.751 1.751 0 0 1 1.072-2.231 35.1 35.1 0 0 1 .793-.265 1.751 1.751 0 1 1 1.069 3.334c-.236.075-.471.153-.7.234a1.749 1.749 0 0 1-2.231-1.072z" fill="url(#a)" data-original="url(#a)"/></svg>