<?xml version="1.0"?>
<svg xmlns="http://www.w3.org/2000/svg" xmlns:xlink="http://www.w3.org/1999/xlink" xmlns:svgjs="http://svgjs.com/svgjs" version="1.1" width="512" height="512" x="0" y="0" viewBox="0 0 480 480" style="enable-background:new 0 0 512 512" xml:space="preserve" class=""><g><linearGradient xmlns="http://www.w3.org/2000/svg" id="a"><stop stop-opacity="1" stop-color="#3adee7" offset="0"/><stop stop-opacity="1" stop-color="#ff00a7" offset="1"/></linearGradient><linearGradient xmlns="http://www.w3.org/2000/svg" xmlns:xlink="http://www.w3.org/1999/xlink" id="b" gradientUnits="userSpaceOnUse" x1="-8" x2="500.048" xlink:href="#a" y1="240" y2="240"/><linearGradient xmlns="http://www.w3.org/2000/svg" xmlns:xlink="http://www.w3.org/1999/xlink" id="c" gradientUnits="userSpaceOnUse" x1="-8" x2="500.048" xlink:href="#a" y1="56" y2="56"/><linearGradient xmlns="http://www.w3.org/2000/svg" xmlns:xlink="http://www.w3.org/1999/xlink" id="d" gradientUnits="userSpaceOnUse" x1="-8" x2="500.048" xlink:href="#a" y1="288" y2="288"/><linearGradient xmlns="http://www.w3.org/2000/svg" xmlns:xlink="http://www.w3.org/1999/xlink" id="e" gradientUnits="userSpaceOnUse" x1="-8" x2="500.048" xlink:href="#a" y1="224" y2="224"/><linearGradient xmlns="http://www.w3.org/2000/svg" xmlns:xlink="http://www.w3.org/1999/xlink" id="f" gradientUnits="userSpaceOnUse" x1="-8" x2="500.048" xlink:href="#a" y1="80" y2="80"/><linearGradient xmlns="http://www.w3.org/2000/svg" xmlns:xlink="http://www.w3.org/1999/xlink" id="g" gradientUnits="userSpaceOnUse" x1="-8" x2="500.048" xlink:href="#a" y1="112" y2="112"/><linearGradient xmlns="http://www.w3.org/2000/svg" xmlns:xlink="http://www.w3.org/1999/xlink" id="h" gradientUnits="userSpaceOnUse" x1="-8" x2="500.048" xlink:href="#a" y1="144" y2="144"/><linearGradient xmlns="http://www.w3.org/2000/svg" xmlns:xlink="http://www.w3.org/1999/xlink" id="i" gradientUnits="userSpaceOnUse" x1="-8" x2="500.048" xlink:href="#a" y1="176" y2="176"/><linearGradient xmlns="http://www.w3.org/2000/svg" xmlns:xlink="http://www.w3.org/1999/xlink" id="j" gradientUnits="userSpaceOnUse" x1="-8" x2="500.048" xlink:href="#a" y1="208" y2="208"/><linearGradient xmlns="http://www.w3.org/2000/svg" xmlns:xlink="http://www.w3.org/1999/xlink" id="k" gradientUnits="userSpaceOnUse" x1="-8" x2="500.048" xlink:href="#a" y1="272" y2="272"/><linearGradient xmlns="http://www.w3.org/2000/svg" xmlns:xlink="http://www.w3.org/1999/xlink" id="l" gradientUnits="userSpaceOnUse" x1="-8" x2="500.048" xlink:href="#a" y1="192" y2="192"/><linearGradient xmlns="http://www.w3.org/2000/svg" xmlns:xlink="http://www.w3.org/1999/xlink" id="m" gradientUnits="userSpaceOnUse" x1="-8" x2="500.048" xlink:href="#a" y1="256" y2="256"/><path xmlns="http://www.w3.org/2000/svg" d="m456 0h-432c-13.253906 0-24 10.746094-24 24v336c0 13.253906 10.746094 24 24 24h173.761719l-12 48h-129.761719c-13.253906 0-24 10.746094-24 24s10.746094 24 24 24h368c13.253906 0 24-10.746094 24-24s-10.746094-24-24-24h-129.761719l-12-48h173.761719c13.253906 0 24-10.746094 24-24v-336c0-13.253906-10.746094-24-24-24zm-432 16h432c4.417969 0 8 3.582031 8 8v304h-448v-304c0-4.417969 3.582031-8 8-8zm408 440c0 4.417969-3.582031 8-8 8h-368c-4.417969 0-8-3.582031-8-8s3.582031-8 8-8h368c4.417969 0 8 3.582031 8 8zm-154.246094-24h-75.507812l12-48h51.507812zm186.246094-72c0 4.417969-3.582031 8-8 8h-432c-4.417969 0-8-3.582031-8-8v-16h448zm0 0" fill="url(#b)" data-original="url(#b)" style="" class=""/><path xmlns="http://www.w3.org/2000/svg" d="m40 80c4.417969 0 8-3.582031 8-8v-24h24c4.417969 0 8-3.582031 8-8s-3.582031-8-8-8h-32c-4.417969 0-8 3.582031-8 8v32c0 4.417969 3.582031 8 8 8zm0 0" fill="url(#c)" data-original="url(#c)" style=""/><path xmlns="http://www.w3.org/2000/svg" d="m400 304c0 4.417969 3.582031 8 8 8h32c4.417969 0 8-3.582031 8-8v-32c0-4.417969-3.582031-8-8-8s-8 3.582031-8 8v24h-24c-4.417969 0-8 3.582031-8 8zm0 0" fill="url(#d)" data-original="url(#d)" style=""/><path xmlns="http://www.w3.org/2000/svg" d="m308.945312 279.382812c.964844.40625 2.003907.617188 3.054688.617188h96c4.417969 0 8-3.582031 8-8v-96c0-4.417969-3.582031-8-8-8h-96c-4.417969 0-8 3.582031-8 8v96c.003906 3.234375 1.953125 6.148438 4.945312 7.382812zm22.367188-15.382812 68.6875-68.6875v68.6875zm57.375-80-68.6875 68.6875v-68.6875zm0 0" fill="url(#e)" data-original="url(#e)" style="" class=""/><path xmlns="http://www.w3.org/2000/svg" d="m304 72h16v16h-16zm0 0" fill="url(#f)" data-original="url(#f)" style=""/><path xmlns="http://www.w3.org/2000/svg" d="m304 104h16v16h-16zm0 0" fill="url(#g)" data-original="url(#g)" style="" class=""/><path xmlns="http://www.w3.org/2000/svg" d="m304 136h16v16h-16zm0 0" fill="url(#h)" data-original="url(#h)" style=""/><path xmlns="http://www.w3.org/2000/svg" d="m336 72h48v16h-48zm0 0" fill="url(#f)" data-original="url(#f)" style=""/><path xmlns="http://www.w3.org/2000/svg" d="m336 104h48v16h-48zm0 0" fill="url(#g)" data-original="url(#g)" style="" class=""/><path xmlns="http://www.w3.org/2000/svg" d="m224 168h48v16h-48zm0 0" fill="url(#i)" data-original="url(#i)" style=""/><path xmlns="http://www.w3.org/2000/svg" d="m224 200h48v16h-48zm0 0" fill="url(#j)" data-original="url(#j)" style=""/><path xmlns="http://www.w3.org/2000/svg" d="m224 232h48v16h-48zm0 0" fill="url(#b)" data-original="url(#b)" style="" class=""/><path xmlns="http://www.w3.org/2000/svg" d="m224 264h48v16h-48zm0 0" fill="url(#k)" data-original="url(#k)" style=""/><path xmlns="http://www.w3.org/2000/svg" d="m336 136h48v16h-48zm0 0" fill="url(#h)" data-original="url(#h)" style=""/><path xmlns="http://www.w3.org/2000/svg" d="m72 72c-4.417969 0-8 3.582031-8 8v64c.066406.851562.207031 1.699219.414062 2.527344 0 .113281.457032.886718.617188 1.191406.289062.554688.636719 1.070312 1.039062 1.546875.226563.246094.46875.476563.722657.695313.484375.417968 1.023437.773437 1.597656 1.054687.261719.152344.527344.292969.800781.417969.894532.359375 1.84375.550781 2.808594.566406h192c4.417969 0 8-3.582031 8-8v-64c-.066406-.851562-.207031-1.699219-.414062-2.527344 0-.105468-.683594-1.273437-1-1.761718-.582032-.738282-1.226563-1.425782-1.929688-2.046876-.824219-.496093-1.695312-.914062-2.601562-1.25-.582032-.15625-1.949219-.414062-2.054688-.414062zm8 16h134.710938l-134.710938 44.902344zm41.289062 48 134.710938-44.902344v44.902344zm0 0" fill="url(#g)" data-original="url(#g)" style="" class=""/><path xmlns="http://www.w3.org/2000/svg" d="m120 168h-48c-4.417969 0-8 3.582031-8 8v32c0 4.417969 3.582031 8 8 8h48c4.417969 0 8-3.582031 8-8v-32c0-4.417969-3.582031-8-8-8zm-8 32h-32v-16h32zm0 0" fill="url(#l)" data-original="url(#l)" style=""/><path xmlns="http://www.w3.org/2000/svg" d="m200 168h-48c-4.417969 0-8 3.582031-8 8v32c0 4.417969 3.582031 8 8 8h48c4.417969 0 8-3.582031 8-8v-32c0-4.417969-3.582031-8-8-8zm-8 32h-32v-16h32zm0 0" fill="url(#l)" data-original="url(#l)" style=""/><g xmlns="http://www.w3.org/2000/svg" fill="url(#m)"><path d="m120 232h-48c-4.417969 0-8 3.582031-8 8v32c0 4.417969 3.582031 8 8 8h48c4.417969 0 8-3.582031 8-8v-32c0-4.417969-3.582031-8-8-8zm-8 32h-32v-16h32zm0 0" fill=""/><path d="m200 232h-48c-4.417969 0-8 3.582031-8 8v32c0 4.417969 3.582031 8 8 8h48c4.417969 0 8-3.582031 8-8v-32c0-4.417969-3.582031-8-8-8zm-8 32h-32v-16h32zm0 0" fill=""/></g></g></svg>
