<?xml version="1.0"?>
<svg xmlns="http://www.w3.org/2000/svg" xmlns:xlink="http://www.w3.org/1999/xlink" xmlns:svgjs="http://svgjs.com/svgjs" version="1.1" width="512" height="512" x="0" y="0" viewBox="0 0 64 64" style="enable-background:new 0 0 512 512" xml:space="preserve" class=""><g><linearGradient xmlns="http://www.w3.org/2000/svg" id="New_Gradient_Swatch_3" gradientUnits="userSpaceOnUse" x1="32" x2="32" y1="69.208" y2="16.275"><stop stop-opacity="1" stop-color="#ff00a7" offset="0"/><stop stop-opacity="1" stop-color="#3adee7" offset="1"/></linearGradient><linearGradient xmlns="http://www.w3.org/2000/svg" xmlns:xlink="http://www.w3.org/1999/xlink" id="New_Gradient_Swatch_3-2" x1="12" x2="12" xlink:href="#New_Gradient_Swatch_3" y1="69.208" y2="16.275"/><linearGradient xmlns="http://www.w3.org/2000/svg" xmlns:xlink="http://www.w3.org/1999/xlink" id="New_Gradient_Swatch_3-3" x1="19" x2="19" xlink:href="#New_Gradient_Swatch_3" y1="69.208" y2="16.275"/><linearGradient xmlns="http://www.w3.org/2000/svg" xmlns:xlink="http://www.w3.org/1999/xlink" id="New_Gradient_Swatch_3-4" x1="27" x2="27" xlink:href="#New_Gradient_Swatch_3" y1="69.208" y2="16.275"/><linearGradient xmlns="http://www.w3.org/2000/svg" xmlns:xlink="http://www.w3.org/1999/xlink" id="New_Gradient_Swatch_3-5" x1="34" x2="34" xlink:href="#New_Gradient_Swatch_3" y1="69.208" y2="16.275"/><linearGradient xmlns="http://www.w3.org/2000/svg" xmlns:xlink="http://www.w3.org/1999/xlink" id="New_Gradient_Swatch_3-6" x1="23" x2="23" xlink:href="#New_Gradient_Swatch_3" y1="69.208" y2="16.275"/><g xmlns="http://www.w3.org/2000/svg" id="Free_delivery" data-name="Free delivery"><path d="m61 53h-1v-11a9.01 9.01 0 0 0 -9-9h-7v-11a1 1 0 0 0 -1-1h-40a1 1 0 0 0 -1 1v32a1 1 0 0 0 1 1h1v1a3 3 0 0 0 3 3h4.812a5.986 5.986 0 0 0 10.376 0h23.624a5.986 5.986 0 0 0 10.376 0h2.812a3 3 0 0 0 3-3v-2a1 1 0 0 0 -1-1zm-3-11v2h-9a1 1 0 0 1 -1-1v-8h3a7.008 7.008 0 0 1 7 7zm-12-7v8a3 3 0 0 0 3 3h9v7h-1.812a5.986 5.986 0 0 0 -10.376 0h-1.812v-18zm-23.812 18a5.986 5.986 0 0 0 -10.376 0h-7.812v-4h38v4zm-18.188-30h38v24h-38zm3 34a1 1 0 0 1 -1-1v-1h5.09a5.6 5.6 0 0 0 0 2zm10 3a4 4 0 1 1 4-4 4 4 0 0 1 -4 4zm5.91-3a5.6 5.6 0 0 0 0-2h22.18a5.6 5.6 0 0 0 0 2zm28.09 3a4 4 0 1 1 4-4 4 4 0 0 1 -4 4zm9-4a1 1 0 0 1 -1 1h-2.09a5.6 5.6 0 0 0 0-2h3.09z" fill="url(#New_Gradient_Swatch_3)" data-original="url(#New_Gradient_Swatch_3)" style=""/><path d="m10 38a1 1 0 0 0 1-1v-3h2a1 1 0 0 0 0-2h-2v-2h3a1 1 0 0 0 0-2h-4a1 1 0 0 0 -1 1v8a1 1 0 0 0 1 1z" fill="url(#New_Gradient_Swatch_3-2)" data-original="url(#New_Gradient_Swatch_3-2)" style=""/><path d="m17 38a1 1 0 0 0 1-1v-2.333l2.2 2.933a1 1 0 1 0 1.6-1.2l-1.912-2.549a2.992 2.992 0 0 0 -.888-5.851h-2a1 1 0 0 0 -1 1v8a1 1 0 0 0 1 1zm3-7a1 1 0 0 1 -1 1h-1v-2h1a1 1 0 0 1 1 1z" fill="url(#New_Gradient_Swatch_3-3)" data-original="url(#New_Gradient_Swatch_3-3)" style=""/><path d="m25 38h4a1 1 0 0 0 0-2h-3v-2h2a1 1 0 0 0 0-2h-2v-2h3a1 1 0 0 0 0-2h-4a1 1 0 0 0 -1 1v8a1 1 0 0 0 1 1z" fill="url(#New_Gradient_Swatch_3-4)" data-original="url(#New_Gradient_Swatch_3-4)" style=""/><path d="m32 38h4a1 1 0 0 0 0-2h-3v-2h2a1 1 0 0 0 0-2h-2v-2h3a1 1 0 0 0 0-2h-4a1 1 0 0 0 -1 1v8a1 1 0 0 0 1 1z" fill="url(#New_Gradient_Swatch_3-5)" data-original="url(#New_Gradient_Swatch_3-5)" style=""/><path d="m39 40h-32a1 1 0 0 0 0 2h32a1 1 0 0 0 0-2z" fill="url(#New_Gradient_Swatch_3-6)" data-original="url(#New_Gradient_Swatch_3-6)" style=""/></g></g></svg>
