<svg id="Layer_5" enable-background="new 0 0 62 62" height="512" viewBox="0 0 62 62" width="512" xmlns="http://www.w3.org/2000/svg" xmlns:xlink="http://www.w3.org/1999/xlink"><linearGradient id="SVGID_1_" gradientUnits="userSpaceOnUse" x1="31" x2="31" y1="62" y2="0"><stop offset="0" stop-color="#9f2fff"/><stop offset="1" stop-color="#0bb1d3"/></linearGradient><path d="m20 57c0 .552-.448 1-1 1s-1-.448-1-1 .448-1 1-1 1 .448 1 1zm-1-5c-.552 0-1 .448-1 1s.448 1 1 1 1-.448 1-1-.448-1-1-1zm0-4c-.552 0-1 .448-1 1s.448 1 1 1 1-.448 1-1-.448-1-1-1zm-6.878-37.464c-.724-.723-1.122-1.685-1.122-2.707 0-2.112 1.717-3.829 3.829-3.829.787 0 1.537.236 2.171.673.633-.437 1.384-.673 2.17-.673 2.112 0 3.83 1.717 3.83 3.829 0 1.022-.398 1.984-1.122 2.707l-2.464 2.464c-.645.645-1.502 1-2.414 1s-1.77-.355-2.414-1zm.878-2.707c0 .488.19.947.536 1.293l2.464 2.464c.526.526 1.474.526 2 0l2.464-2.464c.346-.346.536-.805.536-1.293 0-1.009-.82-1.829-1.829-1.829-.489 0-.948.19-1.293.535l-.878.876-.878-.875c-.346-.346-.805-.536-1.292-.536-1.009 0-1.83.82-1.83 1.829zm-8 7.171v-12c0-1.654 1.346-3 3-3h18c1.654 0 3 1.346 3 3v12c0 1.654-1.346 3-3 3h-5v1.586c0 1.331-1.083 2.414-2.414 2.414-.645 0-1.251-.251-1.707-.707l-3.293-3.293h-5.586c-1.654 0-3-1.346-3-3zm2 0c0 .551.449 1 1 1h6.414l3.879 3.879c.238.239.707.044.707-.293v-3.586h7c.551 0 1-.449 1-1v-12c0-.551-.449-1-1-1h-18c-.551 0-1 .449-1 1zm25 14c0-1.654 1.346-3 3-3s3 1.346 3 3c0 1.302-.839 2.402-2 2.816v4.184c0 2.206 1.794 4 4 4s4-1.794 4-4v-4.184c-1.161-.414-2-1.514-2-2.816 0-1.654 1.346-3 3-3s3 1.346 3 3c0 1.302-.839 2.402-2 2.816v4.184c0 3.309-2.691 6-6 6s-6-2.691-6-6v-4.184c-1.161-.414-2-1.514-2-2.816zm12 0c0 .551.449 1 1 1s1-.449 1-1-.449-1-1-1-1 .449-1 1zm-10 0c0 .551.449 1 1 1s1-.449 1-1-.449-1-1-1-1 .449-1 1zm19.847 11 .872 5.231 1.912-2.185c.582-.665 1.422-1.046 2.306-1.046 1.689 0 3.063 1.375 3.063 3.063 0 1.465-.43 2.884-1.242 4.103l-.395.592c-4.276 6.413-11.43 10.242-19.137 10.242h-13.071c-.895 0-1.77-.168-2.6-.501l-1.887-.755c-.711 1.896-2.527 3.256-4.668 3.256-1.476 0-3.44-.697-4.517-2h-14.483v-14h14.483c1.077-1.303 3.041-2 4.517-2 1.892 0 3.522 1.069 4.371 2.623l1.361-1.089c.177-.141.372-.253.561-.375l3.86-23.159h4.667l2.333-14h4.847v-2c0-3.309 2.691-6 6-6s6 2.691 6 6v2h4.847l4.064 24.383c.059.357.089.718.089 1.075 0 3.607-2.935 6.542-6.542 6.542zm-10.847-32h8v-2c0-2.206-1.794-4-4-4s-4 1.794-4 4zm-7.153 14h15l2.667 16h1.945c2.504 0 4.541-2.037 4.541-4.542 0-.249-.021-.5-.062-.747l-3.785-22.711h-3.153v2.184c1.161.414 2 1.514 2 2.816 0 1.654-1.346 3-3 3s-3-1.346-3-3c0-1.302.839-2.402 2-2.816v-2.184h-8v2.184c1.161.414 2 1.514 2 2.816 0 1.654-1.346 3-3 3s-3-1.346-3-3c0-1.302.839-2.402 2-2.816v-2.184h-3.153zm6.153-8c-.551 0-1 .449-1 1s.449 1 1 1 1-.449 1-1-.449-1-1-1zm10 0c-.551 0-1 .449-1 1s.449 1 1 1 1-.449 1-1-.449-1-1-1zm-24.523 30.217c.533-.128 1.075-.217 1.627-.217h13.896c1.654 0 3 1.346 3 3 0 1.121-.385 2.147-1.01 2.982 2.939-.078 5.738-1.149 7.971-3.011-.009-.086-.008-.174-.022-.259l-3.786-22.712h-18.306zm-25.477 13.783h12v-10h-12zm19.288-7 .293-.503c.278-.477.419-.981.419-1.497 0-1.654-1.346-3-3-3-1.131 0-2.432.588-3 1.319v11.361c.568.732 1.869 1.32 3 1.32 1.654 0 3-1.346 3-3 0-.516-.141-1.02-.419-1.497l-.293-.503.293-.503c.278-.477.419-.981.419-1.497s-.141-1.02-.419-1.497zm34.648-4.122c-2.849 3.255-6.963 5.122-11.289 5.122h-3.647-1-4v-2h4 1c1.654 0 3-1.346 3-3 0-.551-.449-1-1-1h-13.896c-1.131 0-2.24.389-3.124 1.096l-2.011 1.609c.007.099.031.194.031.295 0 .69-.145 1.361-.432 2 .287.639.432 1.31.432 2s-.145 1.361-.432 2c.246.548.366 1.123.401 1.711l2.33.932c.593.237 1.217.357 1.856.357h13.071c7.037 0 13.569-3.496 17.473-9.351l.395-.592c.593-.89.906-1.925.906-2.994 0-.586-.477-1.063-1.063-1.063-.307 0-.599.132-.801.363z" fill="url(#SVGID_1_)"/></svg>