<?xml version="1.0"?>
<svg xmlns="http://www.w3.org/2000/svg" xmlns:xlink="http://www.w3.org/1999/xlink" xmlns:svgjs="http://svgjs.com/svgjs" version="1.1" width="512" height="512" x="0" y="0" viewBox="0 0 128 128" style="enable-background:new 0 0 512 512" xml:space="preserve" class=""><g><linearGradient xmlns="http://www.w3.org/2000/svg" id="a" gradientUnits="userSpaceOnUse" x1="111.57" x2="24.432" y1="111.57" y2="24.432"><stop stop-opacity="1" stop-color="#3adee7" offset="0"/><stop stop-opacity="1" stop-color="#ff00a7" offset="1"/></linearGradient><path xmlns="http://www.w3.org/2000/svg" d="m63.417 54.862a1.75 1.75 0 0 0 2.436.441 36.549 36.549 0 0 0 5.247-4.352 1.751 1.751 0 0 0 0-2.41c-.388-.409-9.643-10.009-21.35-10.009s-20.967 9.599-21.35 10.008a1.75 1.75 0 0 0 0 2.411c.387.409 9.643 10.007 21.349 10.007a11.194 11.194 0 0 0 9.951-16.348 36.347 36.347 0 0 1 7.574 5.138 37 37 0 0 1 -3.417 2.679 1.75 1.75 0 0 0 -.44 2.435zm-23.628-10.252a11.119 11.119 0 0 0 0 10.271 36.364 36.364 0 0 1 -7.571-5.135 36.322 36.322 0 0 1 7.571-5.136zm17.669 5.136a7.713 7.713 0 1 1 -7.713-7.714 7.721 7.721 0 0 1 7.713 7.714zm-21.344 22.194a1.751 1.751 0 0 1 2.364-.735 24.269 24.269 0 1 0 -5.867-4.326 1.75 1.75 0 0 1 -2.474 2.475 27.82 27.82 0 1 1 6.712 4.946 1.749 1.749 0 0 1 -.735-2.36zm-6.685-49.58a1.75 1.75 0 0 1 .485-2.427q.564-.375 1.137-.727a1.75 1.75 0 1 1 1.832 2.982q-.519.318-1.028.657a1.749 1.749 0 0 1 -2.426-.485zm82.14 89.21a8.491 8.491 0 0 1 -11.994 0l-10.784-10.784a1.75 1.75 0 0 1 2.475-2.475l10.784 10.789a4.982 4.982 0 0 0 7.045-7.045l-25.318-25.323-7.045 7.045 5.162 5.161a1.75 1.75 0 0 1 -2.475 2.475l-6.4-6.4a1.749 1.749 0 0 1 0-2.475l3.522-3.522-2.752-2.752a35.8 35.8 0 0 1 -49.357-51.832 1.749 1.749 0 0 1 2.474 2.474 32.28 32.28 0 1 0 12.269-7.689 1.75 1.75 0 0 1 -1.143-3.309 35.8 35.8 0 0 1 38.233 57.883l2.752 2.752 3.523-3.523a1.8 1.8 0 0 1 2.475 0l26.554 26.555a8.49 8.49 0 0 1 0 11.995zm-24.8-17.757a1.75 1.75 0 1 1 -2.475 2.475l-.832-.832a1.75 1.75 0 0 1 2.475-2.475z" fill="url(#a)" data-original="url(#a)" style="" class=""/></g></svg>
