<?xml version="1.0"?>
<svg xmlns="http://www.w3.org/2000/svg" xmlns:xlink="http://www.w3.org/1999/xlink" xmlns:svgjs="http://svgjs.com/svgjs" version="1.1" width="512" height="512" x="0" y="0" viewBox="0 0 512 512" style="enable-background:new 0 0 512 512" xml:space="preserve" class=""><g><linearGradient xmlns="http://www.w3.org/2000/svg" id="linear-gradient" gradientUnits="userSpaceOnUse" x1="256" x2="256" y1="474" y2="94.564"><stop stop-opacity="1" stop-color="#3adee7" offset="0"/><stop stop-opacity="1" stop-color="#3adee7" offset="0.222007722007722"/><stop stop-opacity="1" stop-color="#ff00a7" offset="0.7857142857142857"/><stop stop-opacity="1" stop-color="#ff00a7" offset="1"/></linearGradient><linearGradient xmlns="http://www.w3.org/2000/svg" xmlns:xlink="http://www.w3.org/1999/xlink" id="linear-gradient-2" x1="255.971" x2="255.971" xlink:href="#linear-gradient" y1="474" y2="94.564"/><linearGradient xmlns="http://www.w3.org/2000/svg" xmlns:xlink="http://www.w3.org/1999/xlink" id="linear-gradient-4" x1="221.963" x2="221.963" xlink:href="#linear-gradient" y1="474" y2="94.564"/><linearGradient xmlns="http://www.w3.org/2000/svg" xmlns:xlink="http://www.w3.org/1999/xlink" id="linear-gradient-5" x1="290.103" x2="290.103" xlink:href="#linear-gradient" y1="474" y2="94.564"/><linearGradient xmlns="http://www.w3.org/2000/svg" xmlns:xlink="http://www.w3.org/1999/xlink" id="linear-gradient-6" x1="255.716" x2="255.716" xlink:href="#linear-gradient" y1="474" y2="94.564"/><linearGradient xmlns="http://www.w3.org/2000/svg" xmlns:xlink="http://www.w3.org/1999/xlink" id="linear-gradient-7" x1="236.206" x2="236.206" xlink:href="#linear-gradient" y1="474" y2="94.564"/><linearGradient xmlns="http://www.w3.org/2000/svg" xmlns:xlink="http://www.w3.org/1999/xlink" id="linear-gradient-8" x1="178.782" x2="178.782" xlink:href="#linear-gradient" y1="474" y2="94.564"/><path xmlns="http://www.w3.org/2000/svg" d="m478.4 207.146a33.478 33.478 0 0 1 -5.429-20.115l1.594-28.979a45.235 45.235 0 0 0 -24.748-42.839l-25.646-12.975a32.985 32.985 0 0 1 -14.651-14.672l-12.959-25.681a45.146 45.146 0 0 0 -42.794-24.767l-28.932 1.594a33.362 33.362 0 0 1 -20.067-5.448l-23.927-15.8a45.047 45.047 0 0 0 -49.7 0l-23.93 15.8a33.392 33.392 0 0 1 -20.059 5.447l-28.938-1.6a45.133 45.133 0 0 0 -42.794 24.768l-12.955 25.684a32.977 32.977 0 0 1 -14.651 14.671l-25.648 12.977a45.234 45.234 0 0 0 -24.726 42.842l1.594 28.978a33.478 33.478 0 0 1 -5.434 20.115l-15.77 23.965a45.233 45.233 0 0 0 0 49.774l15.77 23.96a33.483 33.483 0 0 1 5.429 20.116l-1.589 28.979a45.242 45.242 0 0 0 24.729 42.846l25.644 12.971a32.975 32.975 0 0 1 14.652 14.671l12.954 25.685a45.159 45.159 0 0 0 42.8 24.767l28.93-1.6a33.389 33.389 0 0 1 20.067 5.448l23.925 15.8a45.046 45.046 0 0 0 49.724 0l23.93-15.8a33.427 33.427 0 0 1 20.058-5.446l28.94 1.6a45.156 45.156 0 0 0 42.791-24.766l12.955-25.686a32.975 32.975 0 0 1 14.65-14.671l25.649-12.974a45.239 45.239 0 0 0 24.726-42.842l-1.594-28.981a33.483 33.483 0 0 1 5.429-20.116l15.775-23.961a45.233 45.233 0 0 0 0-49.774zm5.751 67.14-15.775 23.961a45.575 45.575 0 0 0 -7.388 27.373l1.594 28.982a33.234 33.234 0 0 1 -18.162 31.476l-25.648 12.973a44.911 44.911 0 0 0 -19.947 19.973l-12.956 25.69a33.158 33.158 0 0 1 -31.421 18.186l-28.948-1.6a45.462 45.462 0 0 0 -27.327 7.416l-23.928 15.8a33.066 33.066 0 0 1 -36.5 0l-23.924-15.8a45.47 45.47 0 0 0 -24.945-7.482q-1.2 0-2.392.064l-28.933 1.6a33.152 33.152 0 0 1 -31.421-18.186l-12.95-25.689a44.905 44.905 0 0 0 -19.949-19.973l-25.643-12.971a33.235 33.235 0 0 1 -18.165-31.479l1.594-28.981a45.575 45.575 0 0 0 -7.388-27.373l-15.775-23.96a33.239 33.239 0 0 1 0-36.578l15.775-23.965a45.57 45.57 0 0 0 7.388-27.372l-1.594-28.98a33.229 33.229 0 0 1 18.163-31.475l25.647-12.976a44.908 44.908 0 0 0 19.947-19.973l12.956-25.686a33.158 33.158 0 0 1 31.418-18.181l28.942 1.6a45.429 45.429 0 0 0 27.327-7.417l23.926-15.8a33.064 33.064 0 0 1 36.48 0l23.924 15.8a45.436 45.436 0 0 0 27.336 7.418l28.936-1.601a33.148 33.148 0 0 1 31.42 18.187l12.955 25.684a44.913 44.913 0 0 0 19.947 19.974l25.653 12.976a33.233 33.233 0 0 1 18.182 31.473l-1.594 28.978a45.57 45.57 0 0 0 7.388 27.372l15.775 23.964a33.239 33.239 0 0 1 -.005 36.578z" fill="url(#linear-gradient)" data-original="url(#linear-gradient)" style=""/><path xmlns="http://www.w3.org/2000/svg" d="m255.971 76.734c-98.7 0-179 80.413-179 179.253s80.3 179.253 179 179.253 179-80.412 179-179.253-80.299-179.253-179-179.253zm0 346.506c-92.084 0-167-75.029-167-167.253s74.916-167.253 167-167.253 167 75.03 167 167.253-74.916 167.253-167 167.253z" fill="url(#linear-gradient-2)" data-original="url(#linear-gradient-2)" style="" class=""/><path xmlns="http://www.w3.org/2000/svg" d="m255.971 112.286c-79.126 0-143.5 64.464-143.5 143.7s64.374 143.7 143.5 143.7 143.5-64.463 143.5-143.7-64.371-143.7-143.5-143.7zm0 275.4c-72.51 0-131.5-59.081-131.5-131.7s58.99-131.7 131.5-131.7 131.5 59.081 131.5 131.7-58.991 131.702-131.5 131.702z" fill="url(#linear-gradient-2)" data-original="url(#linear-gradient-2)" style="" class=""/><path xmlns="http://www.w3.org/2000/svg" d="m241.06 241.5a27.009 27.009 0 1 0 -19.1 7.91 27.04 27.04 0 0 0 19.101-7.91zm-29.707-29.708a15.007 15.007 0 1 1 0 21.223 14.907 14.907 0 0 1 0-21.223z" fill="url(#linear-gradient-4)" data-original="url(#linear-gradient-4)" style=""/><path xmlns="http://www.w3.org/2000/svg" d="m290.1 263.53a27.008 27.008 0 1 0 19.1 7.91 26.834 26.834 0 0 0 -19.1-7.91zm10.611 37.618a15 15 0 1 1 4.4-10.611 14.908 14.908 0 0 1 -4.404 10.611z" fill="url(#linear-gradient-5)" data-original="url(#linear-gradient-5)" style=""/><path xmlns="http://www.w3.org/2000/svg" d="m301.689 210.242a6 6 0 0 0 -8.484 0l-83.463 83.463a6 6 0 1 0 8.485 8.485l83.462-83.463a6 6 0 0 0 0-8.485z" fill="url(#linear-gradient-6)" data-original="url(#linear-gradient-6)" style=""/><path xmlns="http://www.w3.org/2000/svg" d="m233.31 150.616a6 6 0 0 0 1.2-.121c1.8-.366 3.647-.689 5.472-.961a6 6 0 1 0 -1.767-11.869c-2.03.3-4.079.662-6.09 1.069a6 6 0 0 0 1.187 11.882z" fill="url(#linear-gradient-7)" data-original="url(#linear-gradient-7)" style=""/><path xmlns="http://www.w3.org/2000/svg" d="m217.055 149.029a6 6 0 0 0 -7.87-3.172 120.432 120.432 0 0 0 -68.96 79.831 6 6 0 1 0 11.611 3.033 108.351 108.351 0 0 1 62.048-71.821 6 6 0 0 0 3.171-7.871z" fill="url(#linear-gradient-8)" data-original="url(#linear-gradient-8)" style=""/></g></svg>
