<?xml version="1.0"?>
<svg xmlns="http://www.w3.org/2000/svg" xmlns:xlink="http://www.w3.org/1999/xlink" xmlns:svgjs="http://svgjs.com/svgjs" version="1.1" width="512" height="512" x="0" y="0" viewBox="0 0 512 512" style="enable-background:new 0 0 512 512" xml:space="preserve" class=""><g>
<linearGradient xmlns="http://www.w3.org/2000/svg" id="SVGID_1_" gradientUnits="userSpaceOnUse" x1="36" y1="258" x2="476" y2="258" gradientTransform="matrix(1 0 0 -1 0 514)"><stop stop-opacity="1" stop-color="#3adee7" offset="0"/><stop stop-opacity="1" stop-color="#ff00a7" offset="1"/></linearGradient>
<path xmlns="http://www.w3.org/2000/svg" style="fill:url(#SVGID_1_);" d="M256,72C134.413,72,36,170.396,36,292c0,121.587,98.395,220,220,220  c121.59,0,220-98.398,220-220C476,170.413,377.604,72,256,72z M256,472c-99.252,0-180-80.748-180-180s80.748-180,180-180  s180,80.748,180,180S355.252,472,256,472z M176,20c0-11.046,8.954-20,20-20h120c11.046,0,20,8.954,20,20s-8.954,20-20,20H196  C184.954,40,176,31.046,176,20z M340.854,207.147c7.811,7.811,7.81,20.474-0.001,28.284l-70.71,70.71  c-7.81,7.809-20.472,7.812-28.285,0c-7.811-7.811-7.81-20.474,0.001-28.284l70.71-70.71  C320.381,199.338,333.043,199.337,340.854,207.147z" fill=""/>
<g xmlns="http://www.w3.org/2000/svg">
</g>
<g xmlns="http://www.w3.org/2000/svg">
</g>
<g xmlns="http://www.w3.org/2000/svg">
</g>
<g xmlns="http://www.w3.org/2000/svg">
</g>
<g xmlns="http://www.w3.org/2000/svg">
</g>
<g xmlns="http://www.w3.org/2000/svg">
</g>
<g xmlns="http://www.w3.org/2000/svg">
</g>
<g xmlns="http://www.w3.org/2000/svg">
</g>
<g xmlns="http://www.w3.org/2000/svg">
</g>
<g xmlns="http://www.w3.org/2000/svg">
</g>
<g xmlns="http://www.w3.org/2000/svg">
</g>
<g xmlns="http://www.w3.org/2000/svg">
</g>
<g xmlns="http://www.w3.org/2000/svg">
</g>
<g xmlns="http://www.w3.org/2000/svg">
</g>
<g xmlns="http://www.w3.org/2000/svg">
</g>
</g></svg>
