<?xml version="1.0"?>
<svg xmlns="http://www.w3.org/2000/svg" xmlns:xlink="http://www.w3.org/1999/xlink" xmlns:svgjs="http://svgjs.com/svgjs" version="1.1" width="512" height="512" x="0" y="0" viewBox="0 0 480 479" style="enable-background:new 0 0 512 512" xml:space="preserve" class=""><g><linearGradient xmlns="http://www.w3.org/2000/svg" id="a"><stop stop-opacity="1" stop-color="#3adee7" offset="0"/><stop stop-opacity="1" stop-color="#ff00a7" offset="1"/></linearGradient><linearGradient xmlns="http://www.w3.org/2000/svg" xmlns:xlink="http://www.w3.org/1999/xlink" id="b" gradientUnits="userSpaceOnUse" x1="-8" x2="476.248" xlink:href="#a" y1="136.5" y2="136.5"/><linearGradient xmlns="http://www.w3.org/2000/svg" xmlns:xlink="http://www.w3.org/1999/xlink" id="c" gradientUnits="userSpaceOnUse" x1="-8" x2="476.248" xlink:href="#a" y1="208.5" y2="208.5"/><linearGradient xmlns="http://www.w3.org/2000/svg" xmlns:xlink="http://www.w3.org/1999/xlink" id="d" gradientUnits="userSpaceOnUse" x1="-8" x2="476.248" xlink:href="#a" y1="40.5" y2="40.5"/><linearGradient xmlns="http://www.w3.org/2000/svg" xmlns:xlink="http://www.w3.org/1999/xlink" id="e" gradientUnits="userSpaceOnUse" x1="-8" x2="476.248" xlink:href="#a" y1="224.5" y2="224.5"/><linearGradient xmlns="http://www.w3.org/2000/svg" xmlns:xlink="http://www.w3.org/1999/xlink" id="f" gradientUnits="userSpaceOnUse" x1="-8" x2="476.248" xlink:href="#a" y1="328.5" y2="328.5"/><linearGradient xmlns="http://www.w3.org/2000/svg" xmlns:xlink="http://www.w3.org/1999/xlink" id="g" gradientUnits="userSpaceOnUse" x1="-8" x2="476.248" xlink:href="#a" y1="344.5" y2="344.5"/><linearGradient xmlns="http://www.w3.org/2000/svg" xmlns:xlink="http://www.w3.org/1999/xlink" id="h" gradientUnits="userSpaceOnUse" x1="-8" x2="476.248" xlink:href="#a" y1="272.5" y2="272.5"/><linearGradient xmlns="http://www.w3.org/2000/svg" xmlns:xlink="http://www.w3.org/1999/xlink" id="i" gradientUnits="userSpaceOnUse" x1="-8" x2="476.248" xlink:href="#a" y1="232.5" y2="232.5"/><g xmlns="http://www.w3.org/2000/svg" fill="url(#b)"><path d="m336 128.5h16v16h-16zm0 0" fill=""/><path d="m304 128.5h16v16h-16zm0 0" fill=""/><path d="m272 128.5h16v16h-16zm0 0" fill=""/></g><path xmlns="http://www.w3.org/2000/svg" d="m96 96.5h-96v320h384v-96h96v-320h-384zm-80 16h352v48h-352zm352 288h-352v-224h352zm96-96h-80v-208h-272v-16h352zm-352-288h352v48h-352zm0 0" fill="url(#c)" data-original="url(#c)" style="" class=""/><path xmlns="http://www.w3.org/2000/svg" d="m432 32.5h16v16h-16zm0 0" fill="url(#d)" data-original="url(#d)" style=""/><path xmlns="http://www.w3.org/2000/svg" d="m400 32.5h16v16h-16zm0 0" fill="url(#d)" data-original="url(#d)" style=""/><path xmlns="http://www.w3.org/2000/svg" d="m368 32.5h16v16h-16zm0 0" fill="url(#d)" data-original="url(#d)" style=""/><path xmlns="http://www.w3.org/2000/svg" d="m336 192.5h-288v64h288zm-16 48h-256v-32h256zm0 0" fill="url(#e)" data-original="url(#e)" style=""/><path xmlns="http://www.w3.org/2000/svg" d="m128 272.5h-80v112h80zm-16 96h-48v-80h48zm0 0" fill="url(#f)" data-original="url(#f)" style="" class=""/><path xmlns="http://www.w3.org/2000/svg" d="m144 384.5h80v-80h-80zm16-64h48v48h-48zm0 0" fill="url(#g)" data-original="url(#g)" style=""/><path xmlns="http://www.w3.org/2000/svg" d="m240 384.5h96v-112h-96zm16-96h64v80h-64zm0 0" fill="url(#f)" data-original="url(#f)" style="" class=""/><path xmlns="http://www.w3.org/2000/svg" d="m448 256.5h-16v16h-32v16h48zm0 0" fill="url(#h)" data-original="url(#h)" style=""/><path xmlns="http://www.w3.org/2000/svg" d="m432 224.5h16v16h-16zm0 0" fill="url(#i)" data-original="url(#i)" style=""/></g></svg>
