<?xml version="1.0"?>
<svg xmlns="http://www.w3.org/2000/svg" xmlns:xlink="http://www.w3.org/1999/xlink" xmlns:svgjs="http://svgjs.com/svgjs" version="1.1" width="512" height="512" x="0" y="0" viewBox="0 0 512 512.001" style="enable-background:new 0 0 512 512" xml:space="preserve" class=""><g><linearGradient xmlns="http://www.w3.org/2000/svg" id="a" gradientUnits="userSpaceOnUse" x1=".0006999824" x2="511.9966039824" y1="256.0001519824" y2="256.0001519824"><stop stop-opacity="1" stop-color="#00f2fe" offset="0"/><stop stop-opacity="1" stop-color="#3adee7" offset="0"/><stop stop-opacity="1" stop-color="#3adee7" offset="0.0208"/><stop stop-opacity="1" stop-color="#ff00a7" offset="1"/><stop stop-opacity="1" stop-color="#ff00a7" offset="1"/><stop stop-opacity="1" stop-color="#ff00a7" offset="1"/></linearGradient><path xmlns="http://www.w3.org/2000/svg" d="m388.496094 0c-68.097656 0-123.496094 55.402344-123.496094 123.5s55.398438 123.5 123.496094 123.5 123.5-55.402344 123.5-123.5-55.398438-123.5-123.5-123.5zm0 207c-46.039063 0-83.496094-37.460938-83.496094-83.5 0-46.042969 37.457031-83.5 83.496094-83.5 46.042968 0 83.5 37.457031 83.5 83.5 0 46.039062-37.457032 83.5-83.5 83.5zm61.5-83c0 11.046875-8.953125 20-20 20h-41c-11.042969 0-20-8.953125-20-20v-42c0-11.046875 8.957031-20 20-20 11.046875 0 20 8.953125 20 20v22h21c11.046875 0 20 8.953125 20 20zm-303.996094-4c33.082031 0 60-26.917969 60-60 0-33.085938-26.917969-60-60-60-33.085938 0-60 26.914062-60 60 0 33.082031 26.914062 60 60 60zm0-80c11.027344 0 20 8.972656 20 20s-8.972656 20-20 20-20-8.972656-20-20 8.972656-20 20-20zm193 443.285156c4.8125 9.941406.652344 21.902344-9.292969 26.714844-2.804687 1.355469-5.773437 2-8.695312 2-7.429688 0-14.5625-4.15625-18.015625-11.292969l-59.863282-123.710937h-103.132812c-33.085938 0-60-26.914063-60-60v-117.996094c0-33.085938 26.914062-60 60-60h3c33.082031 0 60 26.914062 60 60v77.996094c0 11.046875-8.953125 20-20 20s-20-8.953125-20-20v-77.996094c0-11.03125-8.972656-20-20-20h-3c-11.027344 0-20 8.96875-20 20v117.996094c0 11.03125 8.972656 20 20 20h115.675781c7.667969 0 14.660157 4.386718 18 11.289062zm-87.179688-.363281c5.011719 9.84375 1.09375 21.886719-8.75 26.898437-2.90625 1.480469-6.003906 2.179688-9.058593 2.179688-7.28125 0-14.304688-3.992188-17.835938-10.929688l-22.4375-44.074218h-53.738281c-25.21875 0-48.902344-6.707032-69.359375-18.421875l-31.816406 62.496093c-3.53125 6.9375-10.558594 10.929688-17.839844 10.929688-3.054687 0-6.148437-.699219-9.058594-2.179688-9.84375-5.011718-13.761719-17.054687-8.75-26.898437l35.394531-69.523437c-23.886718-25.121094-38.570312-59.078126-38.570312-96.402344v-157.996094c0-11.046875 8.953125-20 20-20s20 8.953125 20 20v157.996094c0 55.140625 44.859375 100 100 100h66c7.523438 0 14.410156 4.222656 17.820312 10.925781zm0 0" fill="url(#a)" data-original="url(#a)" style=""/></g></svg>
