<?xml version="1.0"?>
<svg xmlns="http://www.w3.org/2000/svg" xmlns:xlink="http://www.w3.org/1999/xlink" xmlns:svgjs="http://svgjs.com/svgjs" version="1.1" width="512" height="512" x="0" y="0" viewBox="0 0 128 128" style="enable-background:new 0 0 512 512" xml:space="preserve" class=""><g><defs xmlns="http://www.w3.org/2000/svg"><linearGradient id="a" x1="102.499" y1="118.31" x2="25.501" y2="41.312" gradientUnits="userSpaceOnUse"><stop stop-opacity="1" stop-color="#ff00a7" offset="0"/><stop stop-opacity="1" stop-color="#3adee7" offset="1"/></linearGradient></defs><path xmlns="http://www.w3.org/2000/svg" d="M109.167,107.417H97.778A14.209,14.209,0,0,0,85,99.335H82.041l-4.111-16.3A34.45,34.45,0,0,0,60.22,17.29a1.75,1.75,0,0,0,.381,3.479,30.807,30.807,0,0,1,24.015,7.677l-1.711,1.711a28.483,28.483,0,0,0-37.81,0l-1.71-1.71a30.892,30.892,0,0,1,4.736-3.488,1.75,1.75,0,1,0-1.8-3,34.518,34.518,0,0,0-6.686,5.221,34.053,34.053,0,0,0-9.494,17.981L28.6,44.382a1.751,1.751,0,0,0-2.533,1.565V57.126A1.75,1.75,0,0,0,28.6,58.691l1.549-.774A34.421,34.421,0,0,0,64,85.974a34.608,34.608,0,0,0,10.636-1.682L78.43,99.335H49.57l2.81-11.142a1.751,1.751,0,0,0-3.4-.855l-3.026,12H43a14.209,14.209,0,0,0-12.774,8.082H18.833a1.75,1.75,0,0,0,0,3.5H66.75a1.75,1.75,0,0,0,0-3.5H34.257A10.692,10.692,0,0,1,43,102.835H85a10.692,10.692,0,0,1,8.739,4.582H81.125a1.75,1.75,0,0,0,0,3.5h28.042a1.75,1.75,0,0,0,0-3.5ZM87.088,72.149l-1.7-1.7a28.51,28.51,0,0,0-.01-37.82l1.708-1.708A31,31,0,0,1,87.088,72.149ZM64,26.478a24.945,24.945,0,0,1,16.426,6.158l-9.082,9.083a1.749,1.749,0,1,0,2.474,2.474L82.9,35.111a25.009,25.009,0,0,1,.008,32.86L70.27,55.331A7.323,7.323,0,0,0,60.205,45.267L47.578,32.639A25.059,25.059,0,0,1,64,26.478ZM60.161,51.536A3.839,3.839,0,1,1,64,55.376,3.843,3.843,0,0,1,60.161,51.536Zm-19.235-20.6,1.7,1.7a28.344,28.344,0,0,0-6.16,11.288,1.75,1.75,0,1,0,3.375.929,24.859,24.859,0,0,1,5.262-9.74L57.73,47.741a7.271,7.271,0,0,0,0,7.59L45.059,68a24.94,24.94,0,0,1-6.041-14.524l.755-.377a1.75,1.75,0,0,0,0-3.131L33.435,46.8A30.516,30.516,0,0,1,40.926,30.938ZM29.562,48.778l5.516,2.758-5.516,2.758Zm6.108,6.375a28.384,28.384,0,0,0,6.907,15.332l-1.651,1.651a30.523,30.523,0,0,1-7.491-15.865Zm7.715,19.474,1.663-1.663A28.707,28.707,0,0,0,76,77.46a1.75,1.75,0,1,0-1.473-3.176,25.184,25.184,0,0,1-26.991-3.806L60.205,57.806a7.265,7.265,0,0,0,7.59,0l16.82,16.821A31,31,0,0,1,43.385,74.627Zm32.865,34.54a1.749,1.749,0,0,1-1.75,1.75h-.688a1.75,1.75,0,1,1,0-3.5H74.5A1.749,1.749,0,0,1,76.25,109.167ZM51.617,21.216a1.751,1.751,0,0,1,1.072-2.231c.264-.092.529-.18.793-.265a1.751,1.751,0,1,1,1.069,3.334c-.236.075-.471.153-.7.234a1.749,1.749,0,0,1-2.231-1.072Z" fill="url(#a)" data-original="url(#a)" style="" class=""/></g></svg>
